<?xml version="1.0" encoding="utf-8" standalone="no"?>
<!DOCTYPE svg PUBLIC "-//W3C//DTD SVG 1.1//EN"
  "http://www.w3.org/Graphics/SVG/1.1/DTD/svg11.dtd">
<svg xmlns:xlink="http://www.w3.org/1999/xlink" width="452.741303pt" height="270.595937pt" viewBox="0 0 452.741303 270.595937" xmlns="http://www.w3.org/2000/svg" version="1.1">
 <metadata>
  <rdf:RDF xmlns:dc="http://purl.org/dc/elements/1.1/" xmlns:cc="http://creativecommons.org/ns#" xmlns:rdf="http://www.w3.org/1999/02/22-rdf-syntax-ns#">
   <cc:Work>
    <dc:type rdf:resource="http://purl.org/dc/dcmitype/StillImage"/>
    <dc:date>2026-02-22T21:38:45.746130</dc:date>
    <dc:format>image/svg+xml</dc:format>
    <dc:creator>
     <cc:Agent>
      <dc:title>Matplotlib v3.8.4, https://matplotlib.org/</dc:title>
     </cc:Agent>
    </dc:creator>
   </cc:Work>
  </rdf:RDF>
 </metadata>
 <defs>
  <style type="text/css">*{stroke-linejoin: round; stroke-linecap: butt}</style>
 </defs>
 <g id="figure_1">
  <g id="patch_1">
   <path d="M 0 270.595937 
L 452.741303 270.595937 
L 452.741303 0 
L 0 0 
z
" style="fill: #ffffff"/>
  </g>
  <g id="axes_1">
   <g id="patch_2">
    <path d="M 100.667187 228.96 
L 435.467188 228.96 
L 435.467188 7.2 
L 100.667187 7.2 
z
" style="fill: #ffffff"/>
   </g>
   <g id="matplotlib.axis_1">
    <g id="xtick_1">
     <g id="text_1">
      <text style="fill: #262626; font: 30px 'Arial', sans-serif; text-anchor: middle" x="100.667187" y="257.433437" transform="rotate(-0 100.667187 257.433437)">−0.5</text>
     </g>
    </g>
    <g id="xtick_2">
     <g id="text_2">
      <text style="fill: #262626; font: 30px 'Arial', sans-serif; text-anchor: middle" x="208.675226" y="257.433437" transform="rotate(-0 208.675226 257.433437)">0.0</text>
     </g>
    </g>
    <g id="xtick_3">
     <g id="text_3">
      <text style="fill: #262626; font: 30px 'Arial', sans-serif; text-anchor: middle" x="316.683265" y="257.433437" transform="rotate(-0 316.683265 257.433437)">0.5</text>
     </g>
    </g>
    <g id="xtick_4">
     <g id="text_4">
      <text style="fill: #262626; font: 30px 'Arial', sans-serif; text-anchor: middle" x="424.691303" y="257.433437" transform="rotate(-0 424.691303 257.433437)">1.0</text>
     </g>
    </g>
   </g>
   <g id="matplotlib.axis_2">
    <g id="ytick_1">
     <g id="text_5">
      <text style="fill: #262626; font: 30px 'Arial', sans-serif; text-anchor: end" x="93.667187" y="239.696719" transform="rotate(-0 93.667187 239.696719)">0</text>
     </g>
    </g>
    <g id="ytick_2">
     <g id="text_6">
      <text style="fill: #262626; font: 30px 'Arial', sans-serif; text-anchor: end" x="93.667187" y="177.942333" transform="rotate(-0 93.667187 177.942333)">150</text>
     </g>
    </g>
    <g id="ytick_3">
     <g id="text_7">
      <text style="fill: #262626; font: 30px 'Arial', sans-serif; text-anchor: end" x="93.667187" y="116.187947" transform="rotate(-0 93.667187 116.187947)">300</text>
     </g>
    </g>
    <g id="ytick_4">
     <g id="text_8">
      <text style="fill: #262626; font: 30px 'Arial', sans-serif; text-anchor: end" x="93.667187" y="54.433561" transform="rotate(-0 93.667187 54.433561)">450</text>
     </g>
    </g>
    <g id="text_9">
     <text style="fill: #262626; font: 35px 'Arial', sans-serif; text-anchor: middle" x="32.252344" y="118.08" transform="rotate(-90 32.252344 118.08)">Frequency</text>
    </g>
   </g>
   <g id="patch_3">
    <path d="M 208.689994 228.96 
L 230.287822 228.96 
L 230.287822 17.76 
L 208.689994 17.76 
z
" clip-path="url(#p6891228d7e)" style="fill: #ba2d0b; stroke: #000000; stroke-width: 1.5; stroke-linejoin: miter"/>
   </g>
   <g id="patch_4">
    <path d="M 230.287822 228.96 
L 251.88565 228.96 
L 251.88565 88.16 
L 230.287822 88.16 
z
" clip-path="url(#p6891228d7e)" style="fill: #ba2d0b; stroke: #000000; stroke-width: 1.5; stroke-linejoin: miter"/>
   </g>
   <g id="patch_5">
    <path d="M 251.88565 228.96 
L 273.483478 228.96 
L 273.483478 159.795088 
L 251.88565 159.795088 
z
" clip-path="url(#p6891228d7e)" style="fill: #ba2d0b; stroke: #000000; stroke-width: 1.5; stroke-linejoin: miter"/>
   </g>
   <g id="patch_6">
    <path d="M 273.483478 228.96 
L 295.081306 228.96 
L 295.081306 213.727251 
L 273.483478 213.727251 
z
" clip-path="url(#p6891228d7e)" style="fill: #ba2d0b; stroke: #000000; stroke-width: 1.5; stroke-linejoin: miter"/>
   </g>
   <g id="patch_7">
    <path d="M 295.081306 228.96 
L 316.679134 228.96 
L 316.679134 225.254737 
L 295.081306 225.254737 
z
" clip-path="url(#p6891228d7e)" style="fill: #ba2d0b; stroke: #000000; stroke-width: 1.5; stroke-linejoin: miter"/>
   </g>
   <g id="patch_8">
    <path d="M 316.679134 228.96 
L 338.276962 228.96 
L 338.276962 228.96 
L 316.679134 228.96 
z
" clip-path="url(#p6891228d7e)" style="fill: #ba2d0b; stroke: #000000; stroke-width: 1.5; stroke-linejoin: miter"/>
   </g>
   <g id="patch_9">
    <path d="M 338.276962 228.96 
L 359.87479 228.96 
L 359.87479 228.96 
L 338.276962 228.96 
z
" clip-path="url(#p6891228d7e)" style="fill: #ba2d0b; stroke: #000000; stroke-width: 1.5; stroke-linejoin: miter"/>
   </g>
   <g id="patch_10">
    <path d="M 359.87479 228.96 
L 381.472618 228.96 
L 381.472618 228.96 
L 359.87479 228.96 
z
" clip-path="url(#p6891228d7e)" style="fill: #ba2d0b; stroke: #000000; stroke-width: 1.5; stroke-linejoin: miter"/>
   </g>
   <g id="patch_11">
    <path d="M 381.472618 228.96 
L 403.070446 228.96 
L 403.070446 228.96 
L 381.472618 228.96 
z
" clip-path="url(#p6891228d7e)" style="fill: #ba2d0b; stroke: #000000; stroke-width: 1.5; stroke-linejoin: miter"/>
   </g>
   <g id="patch_12">
    <path d="M 403.070446 228.96 
L 424.668274 228.96 
L 424.668274 228.96 
L 403.070446 228.96 
z
" clip-path="url(#p6891228d7e)" style="fill: #ba2d0b; stroke: #000000; stroke-width: 1.5; stroke-linejoin: miter"/>
   </g>
   <g id="patch_13">
    <path d="M 208.689994 228.96 
L 230.287822 228.96 
L 230.287822 228.96 
L 208.689994 228.96 
z
" clip-path="url(#p6891228d7e)" style="fill: #003e1f; stroke: #000000; stroke-width: 1.5; stroke-linejoin: miter"/>
   </g>
   <g id="patch_14">
    <path d="M 230.287822 228.96 
L 251.88565 228.96 
L 251.88565 228.96 
L 230.287822 228.96 
z
" clip-path="url(#p6891228d7e)" style="fill: #003e1f; stroke: #000000; stroke-width: 1.5; stroke-linejoin: miter"/>
   </g>
   <g id="patch_15">
    <path d="M 251.88565 228.96 
L 273.483478 228.96 
L 273.483478 228.96 
L 251.88565 228.96 
z
" clip-path="url(#p6891228d7e)" style="fill: #003e1f; stroke: #000000; stroke-width: 1.5; stroke-linejoin: miter"/>
   </g>
   <g id="patch_16">
    <path d="M 273.483478 228.96 
L 295.081306 228.96 
L 295.081306 228.96 
L 273.483478 228.96 
z
" clip-path="url(#p6891228d7e)" style="fill: #003e1f; stroke: #000000; stroke-width: 1.5; stroke-linejoin: miter"/>
   </g>
   <g id="patch_17">
    <path d="M 295.081306 228.96 
L 316.679134 228.96 
L 316.679134 228.96 
L 295.081306 228.96 
z
" clip-path="url(#p6891228d7e)" style="fill: #003e1f; stroke: #000000; stroke-width: 1.5; stroke-linejoin: miter"/>
   </g>
   <g id="patch_18">
    <path d="M 316.679134 228.96 
L 338.276962 228.96 
L 338.276962 226.90152 
L 316.679134 226.90152 
z
" clip-path="url(#p6891228d7e)" style="fill: #003e1f; stroke: #000000; stroke-width: 1.5; stroke-linejoin: miter"/>
   </g>
   <g id="patch_19">
    <path d="M 338.276962 228.96 
L 359.87479 228.96 
L 359.87479 212.080468 
L 338.276962 212.080468 
z
" clip-path="url(#p6891228d7e)" style="fill: #003e1f; stroke: #000000; stroke-width: 1.5; stroke-linejoin: miter"/>
   </g>
   <g id="patch_20">
    <path d="M 359.87479 228.96 
L 381.472618 228.96 
L 381.472618 173.792749 
L 359.87479 173.792749 
z
" clip-path="url(#p6891228d7e)" style="fill: #003e1f; stroke: #000000; stroke-width: 1.5; stroke-linejoin: miter"/>
   </g>
   <g id="patch_21">
    <path d="M 381.472618 228.96 
L 403.070446 228.96 
L 403.070446 115.33193 
L 381.472618 115.33193 
z
" clip-path="url(#p6891228d7e)" style="fill: #003e1f; stroke: #000000; stroke-width: 1.5; stroke-linejoin: miter"/>
   </g>
   <g id="patch_22">
    <path d="M 403.070446 228.96 
L 424.668274 228.96 
L 424.668274 33.404444 
L 403.070446 33.404444 
z
" clip-path="url(#p6891228d7e)" style="fill: #003e1f; stroke: #000000; stroke-width: 1.5; stroke-linejoin: miter"/>
   </g>
   <g id="patch_23">
    <path d="M 100.667187 228.96 
L 100.667187 7.2 
" style="fill: none; stroke: #262626; stroke-width: 2; stroke-linejoin: miter; stroke-linecap: square"/>
   </g>
   <g id="patch_24">
    <path d="M 100.667187 228.96 
L 435.467188 228.96 
" style="fill: none; stroke: #262626; stroke-width: 2; stroke-linejoin: miter; stroke-linecap: square"/>
   </g>
  </g>
 </g>
 <defs>
  <clipPath id="p6891228d7e">
   <rect x="100.667187" y="7.2" width="334.8" height="221.76"/>
  </clipPath>
 </defs>
</svg>
