<?xml version="1.0" encoding="utf-8" standalone="no"?>
<!DOCTYPE svg PUBLIC "-//W3C//DTD SVG 1.1//EN"
  "http://www.w3.org/Graphics/SVG/1.1/DTD/svg11.dtd">
<svg xmlns:xlink="http://www.w3.org/1999/xlink" width="449.368853pt" height="270.595937pt" viewBox="0 0 449.368853 270.595937" xmlns="http://www.w3.org/2000/svg" version="1.1">
 <metadata>
  <rdf:RDF xmlns:dc="http://purl.org/dc/elements/1.1/" xmlns:cc="http://creativecommons.org/ns#" xmlns:rdf="http://www.w3.org/1999/02/22-rdf-syntax-ns#">
   <cc:Work>
    <dc:type rdf:resource="http://purl.org/dc/dcmitype/StillImage"/>
    <dc:date>2026-02-21T15:40:06.368340</dc:date>
    <dc:format>image/svg+xml</dc:format>
    <dc:creator>
     <cc:Agent>
      <dc:title>Matplotlib v3.8.4, https://matplotlib.org/</dc:title>
     </cc:Agent>
    </dc:creator>
   </cc:Work>
  </rdf:RDF>
 </metadata>
 <defs>
  <style type="text/css">*{stroke-linejoin: round; stroke-linecap: butt}</style>
 </defs>
 <g id="figure_1">
  <g id="patch_1">
   <path d="M 0 270.595937 
L 449.368853 270.595937 
L 449.368853 0 
L 0 0 
z
" style="fill: #ffffff"/>
  </g>
  <g id="axes_1">
   <g id="patch_2">
    <path d="M 100.667187 228.96 
L 435.467188 228.96 
L 435.467188 7.2 
L 100.667187 7.2 
z
" style="fill: #ffffff"/>
   </g>
   <g id="matplotlib.axis_1">
    <g id="xtick_1">
     <g id="text_1">
      <text style="fill: #262626; font: 30px 'Arial', sans-serif; text-anchor: middle" x="100.667188" y="257.433437" transform="rotate(-0 100.667188 257.433437)">−0.5</text>
     </g>
    </g>
    <g id="xtick_2">
     <g id="text_2">
      <text style="fill: #262626; font: 30px 'Arial', sans-serif; text-anchor: middle" x="207.551076" y="257.433437" transform="rotate(-0 207.551076 257.433437)">0.0</text>
     </g>
    </g>
    <g id="xtick_3">
     <g id="text_3">
      <text style="fill: #262626; font: 30px 'Arial', sans-serif; text-anchor: middle" x="314.434964" y="257.433437" transform="rotate(-0 314.434964 257.433437)">0.5</text>
     </g>
    </g>
    <g id="xtick_4">
     <g id="text_4">
      <text style="fill: #262626; font: 30px 'Arial', sans-serif; text-anchor: middle" x="421.318853" y="257.433437" transform="rotate(-0 421.318853 257.433437)">1.0</text>
     </g>
    </g>
   </g>
   <g id="matplotlib.axis_2">
    <g id="ytick_1">
     <g id="text_5">
      <text style="fill: #262626; font: 30px 'Arial', sans-serif; text-anchor: end" x="93.667187" y="239.696719" transform="rotate(-0 93.667187 239.696719)">0</text>
     </g>
    </g>
    <g id="ytick_2">
     <g id="text_6">
      <text style="fill: #262626; font: 30px 'Arial', sans-serif; text-anchor: end" x="93.667187" y="161.280877" transform="rotate(-0 93.667187 161.280877)">150</text>
     </g>
    </g>
    <g id="ytick_3">
     <g id="text_7">
      <text style="fill: #262626; font: 30px 'Arial', sans-serif; text-anchor: end" x="93.667187" y="82.865036" transform="rotate(-0 93.667187 82.865036)">300</text>
     </g>
    </g>
    <g id="text_8">
     <text style="fill: #262626; font: 35px 'Arial', sans-serif; text-anchor: middle" x="32.252344" y="118.08" transform="rotate(-90 32.252344 118.08)">Frequency</text>
    </g>
   </g>
   <g id="patch_3">
    <path d="M 137.685078 228.96 
L 166.045279 228.96 
L 166.045279 220.072871 
L 137.685078 220.072871 
z
" clip-path="url(#p75cf846378)" style="fill: #f7c59f; stroke: #000000; stroke-width: 1.5; stroke-linejoin: miter"/>
   </g>
   <g id="patch_4">
    <path d="M 166.045279 228.96 
L 194.40548 228.96 
L 194.40548 137.474851 
L 166.045279 137.474851 
z
" clip-path="url(#p75cf846378)" style="fill: #f7c59f; stroke: #000000; stroke-width: 1.5; stroke-linejoin: miter"/>
   </g>
   <g id="patch_5">
    <path d="M 194.40548 228.96 
L 222.765681 228.96 
L 222.765681 59.05901 
L 194.40548 59.05901 
z
" clip-path="url(#p75cf846378)" style="fill: #f7c59f; stroke: #000000; stroke-width: 1.5; stroke-linejoin: miter"/>
   </g>
   <g id="patch_6">
    <path d="M 222.765681 228.96 
L 251.125882 228.96 
L 251.125882 140.088713 
L 222.765681 140.088713 
z
" clip-path="url(#p75cf846378)" style="fill: #f7c59f; stroke: #000000; stroke-width: 1.5; stroke-linejoin: miter"/>
   </g>
   <g id="patch_7">
    <path d="M 251.125882 228.96 
L 279.486083 228.96 
L 279.486083 220.595644 
L 251.125882 220.595644 
z
" clip-path="url(#p75cf846378)" style="fill: #f7c59f; stroke: #000000; stroke-width: 1.5; stroke-linejoin: miter"/>
   </g>
   <g id="patch_8">
    <path d="M 279.486083 228.96 
L 307.846283 228.96 
L 307.846283 228.96 
L 279.486083 228.96 
z
" clip-path="url(#p75cf846378)" style="fill: #f7c59f; stroke: #000000; stroke-width: 1.5; stroke-linejoin: miter"/>
   </g>
   <g id="patch_9">
    <path d="M 307.846283 228.96 
L 336.206484 228.96 
L 336.206484 228.96 
L 307.846283 228.96 
z
" clip-path="url(#p75cf846378)" style="fill: #f7c59f; stroke: #000000; stroke-width: 1.5; stroke-linejoin: miter"/>
   </g>
   <g id="patch_10">
    <path d="M 336.206484 228.96 
L 364.566685 228.96 
L 364.566685 228.96 
L 336.206484 228.96 
z
" clip-path="url(#p75cf846378)" style="fill: #f7c59f; stroke: #000000; stroke-width: 1.5; stroke-linejoin: miter"/>
   </g>
   <g id="patch_11">
    <path d="M 364.566685 228.96 
L 392.926886 228.96 
L 392.926886 228.96 
L 364.566685 228.96 
z
" clip-path="url(#p75cf846378)" style="fill: #f7c59f; stroke: #000000; stroke-width: 1.5; stroke-linejoin: miter"/>
   </g>
   <g id="patch_12">
    <path d="M 392.926886 228.96 
L 421.287087 228.96 
L 421.287087 228.96 
L 392.926886 228.96 
z
" clip-path="url(#p75cf846378)" style="fill: #f7c59f; stroke: #000000; stroke-width: 1.5; stroke-linejoin: miter"/>
   </g>
   <g id="patch_13">
    <path d="M 137.685078 228.96 
L 166.045279 228.96 
L 166.045279 228.96 
L 137.685078 228.96 
z
" clip-path="url(#p75cf846378)" style="fill: #ccddb7; stroke: #000000; stroke-width: 1.5; stroke-linejoin: miter"/>
   </g>
   <g id="patch_14">
    <path d="M 166.045279 228.96 
L 194.40548 228.96 
L 194.40548 228.96 
L 166.045279 228.96 
z
" clip-path="url(#p75cf846378)" style="fill: #ccddb7; stroke: #000000; stroke-width: 1.5; stroke-linejoin: miter"/>
   </g>
   <g id="patch_15">
    <path d="M 194.40548 228.96 
L 222.765681 228.96 
L 222.765681 228.96 
L 194.40548 228.96 
z
" clip-path="url(#p75cf846378)" style="fill: #ccddb7; stroke: #000000; stroke-width: 1.5; stroke-linejoin: miter"/>
   </g>
   <g id="patch_16">
    <path d="M 222.765681 228.96 
L 251.125882 228.96 
L 251.125882 228.96 
L 222.765681 228.96 
z
" clip-path="url(#p75cf846378)" style="fill: #ccddb7; stroke: #000000; stroke-width: 1.5; stroke-linejoin: miter"/>
   </g>
   <g id="patch_17">
    <path d="M 251.125882 228.96 
L 279.486083 228.96 
L 279.486083 210.140198 
L 251.125882 210.140198 
z
" clip-path="url(#p75cf846378)" style="fill: #ccddb7; stroke: #000000; stroke-width: 1.5; stroke-linejoin: miter"/>
   </g>
   <g id="patch_18">
    <path d="M 279.486083 228.96 
L 307.846283 228.96 
L 307.846283 90.948119 
L 279.486083 90.948119 
z
" clip-path="url(#p75cf846378)" style="fill: #ccddb7; stroke: #000000; stroke-width: 1.5; stroke-linejoin: miter"/>
   </g>
   <g id="patch_19">
    <path d="M 307.846283 228.96 
L 336.206484 228.96 
L 336.206484 39.193663 
L 307.846283 39.193663 
z
" clip-path="url(#p75cf846378)" style="fill: #ccddb7; stroke: #000000; stroke-width: 1.5; stroke-linejoin: miter"/>
   </g>
   <g id="patch_20">
    <path d="M 336.206484 228.96 
L 364.566685 228.96 
L 364.566685 160.999604 
L 336.206484 160.999604 
z
" clip-path="url(#p75cf846378)" style="fill: #ccddb7; stroke: #000000; stroke-width: 1.5; stroke-linejoin: miter"/>
   </g>
   <g id="patch_21">
    <path d="M 364.566685 228.96 
L 392.926886 228.96 
L 392.926886 225.823366 
L 364.566685 225.823366 
z
" clip-path="url(#p75cf846378)" style="fill: #ccddb7; stroke: #000000; stroke-width: 1.5; stroke-linejoin: miter"/>
   </g>
   <g id="patch_22">
    <path d="M 392.926886 228.96 
L 421.287087 228.96 
L 421.287087 228.96 
L 392.926886 228.96 
z
" clip-path="url(#p75cf846378)" style="fill: #ccddb7; stroke: #000000; stroke-width: 1.5; stroke-linejoin: miter"/>
   </g>
   <g id="patch_23">
    <path d="M 137.685078 228.96 
L 166.045279 228.96 
L 166.045279 228.96 
L 137.685078 228.96 
z
" clip-path="url(#p75cf846378)" style="fill: #083d77; stroke: #000000; stroke-width: 1.5; stroke-linejoin: miter"/>
   </g>
   <g id="patch_24">
    <path d="M 166.045279 228.96 
L 194.40548 228.96 
L 194.40548 228.96 
L 166.045279 228.96 
z
" clip-path="url(#p75cf846378)" style="fill: #083d77; stroke: #000000; stroke-width: 1.5; stroke-linejoin: miter"/>
   </g>
   <g id="patch_25">
    <path d="M 194.40548 228.96 
L 222.765681 228.96 
L 222.765681 228.96 
L 194.40548 228.96 
z
" clip-path="url(#p75cf846378)" style="fill: #083d77; stroke: #000000; stroke-width: 1.5; stroke-linejoin: miter"/>
   </g>
   <g id="patch_26">
    <path d="M 222.765681 228.96 
L 251.125882 228.96 
L 251.125882 228.96 
L 222.765681 228.96 
z
" clip-path="url(#p75cf846378)" style="fill: #083d77; stroke: #000000; stroke-width: 1.5; stroke-linejoin: miter"/>
   </g>
   <g id="patch_27">
    <path d="M 251.125882 228.96 
L 279.486083 228.96 
L 279.486083 228.96 
L 251.125882 228.96 
z
" clip-path="url(#p75cf846378)" style="fill: #083d77; stroke: #000000; stroke-width: 1.5; stroke-linejoin: miter"/>
   </g>
   <g id="patch_28">
    <path d="M 279.486083 228.96 
L 307.846283 228.96 
L 307.846283 228.96 
L 279.486083 228.96 
z
" clip-path="url(#p75cf846378)" style="fill: #083d77; stroke: #000000; stroke-width: 1.5; stroke-linejoin: miter"/>
   </g>
   <g id="patch_29">
    <path d="M 307.846283 228.96 
L 336.206484 228.96 
L 336.206484 228.96 
L 307.846283 228.96 
z
" clip-path="url(#p75cf846378)" style="fill: #083d77; stroke: #000000; stroke-width: 1.5; stroke-linejoin: miter"/>
   </g>
   <g id="patch_30">
    <path d="M 336.206484 228.96 
L 364.566685 228.96 
L 364.566685 228.96 
L 336.206484 228.96 
z
" clip-path="url(#p75cf846378)" style="fill: #083d77; stroke: #000000; stroke-width: 1.5; stroke-linejoin: miter"/>
   </g>
   <g id="patch_31">
    <path d="M 364.566685 228.96 
L 392.926886 228.96 
L 392.926886 179.819406 
L 364.566685 179.819406 
z
" clip-path="url(#p75cf846378)" style="fill: #083d77; stroke: #000000; stroke-width: 1.5; stroke-linejoin: miter"/>
   </g>
   <g id="patch_32">
    <path d="M 392.926886 228.96 
L 421.287087 228.96 
L 421.287087 17.76 
L 392.926886 17.76 
z
" clip-path="url(#p75cf846378)" style="fill: #083d77; stroke: #000000; stroke-width: 1.5; stroke-linejoin: miter"/>
   </g>
   <g id="patch_33">
    <path d="M 100.667187 228.96 
L 100.667187 7.2 
" style="fill: none; stroke: #262626; stroke-width: 2; stroke-linejoin: miter; stroke-linecap: square"/>
   </g>
   <g id="patch_34">
    <path d="M 100.667188 228.96 
L 435.467188 228.96 
" style="fill: none; stroke: #262626; stroke-width: 2; stroke-linejoin: miter; stroke-linecap: square"/>
   </g>
  </g>
 </g>
 <defs>
  <clipPath id="p75cf846378">
   <rect x="100.667187" y="7.2" width="334.8" height="221.76"/>
  </clipPath>
 </defs>
</svg>
